<?xml version="1.0" encoding="utf-8"?>
<!-- Generator: Adobe Illustrator 23.0.3, SVG Export Plug-In . SVG Version: 6.00 Build 0)  -->
<svg version="1.1" id="Layer_1" xmlns="http://www.w3.org/2000/svg" xmlns:xlink="http://www.w3.org/1999/xlink" x="0px" y="0px"
	 viewBox="0 0 279.1 110.9" style="enable-background:new 0 0 279.1 110.9;" xml:space="preserve">
<g>
	<path d="M133.9,1.4h128.3c0.9,0,1.7,0.1,2.6,0.3L192.9,46L132.1,1.6C132.7,1.5,133.3,1.4,133.9,1.4z"/>
	<path d="M36.7,106.3V87.1H94l-0.7,6.2l-0.1,1.1v1.2c0,3.7,0.6,7.3,1.6,10.7H36.7z"/>
	<polygon points="96,68.8 17.4,68.8 17.4,49.6 98.2,49.6 	"/>
	<path d="M102.1,15l-1.1,9.8H0V5.6h103.7C102.8,8.6,102.2,11.7,102.1,15z"/>
	<path d="M253.3,110.7H125c-3.8,0-7.3-1.7-9.8-4.4c0,0,0,0,0,0c-0.6-0.7-1.2-1.4-1.7-2.2c0,0,0,0,0-0.1c-0.5-0.7-0.8-1.5-1.2-2.3
		c0-0.1-0.1-0.2-0.1-0.2c-0.3-0.8-0.5-1.6-0.7-2.4c0-0.1-0.1-0.3-0.1-0.4c-0.2-1-0.3-2-0.3-3l4.8-42.2l0.4-3.9l3.7-33.2
		c0-0.9,0.1-1.9,0.3-2.8c0-0.1,0-0.2,0-0.3c0,0,0,0,0,0c0.4-2,1.2-4,2.2-5.6V15l66.2,48.2c0.1,0.1,0.2,0.1,0.3,0.2
		c0.1,0.1,0.2,0.1,0.3,0.2c0.5,0.3,1.1,0.5,1.6,0.7c0.1,0,0.1,0,0.2,0c0.6,0.2,1.2,0.2,1.8,0.2h0c0,0,0,0,0,0c0.6,0,1.2-0.1,1.8-0.2
		c0.1,0,0.1,0,0.2,0c0.5-0.2,1.1-0.4,1.6-0.7c0.1-0.1,0.2-0.1,0.3-0.2c0.1-0.1,0.2-0.1,0.3-0.2l78.9-49c0.1,0.7,0.2,1.4,0.2,2.1
		l-8.9,79.3C267.3,104,261,110.7,253.3,110.7z"/>
</g>
</svg>
